<svg width="24" height="25" viewBox="0 0 24 25" fill="none" xmlns="http://www.w3.org/2000/svg">
<path fill-rule="evenodd" clip-rule="evenodd" d="M12 3.5C9.5556 3.5 9.2496 3.5102 8.2896 3.554C7.3314 3.5978 6.6768 3.7502 6.1044 3.9728C5.5044 4.1984 4.9602 4.5524 4.5102 5.0108C4.05253 5.46028 3.69831 6.0041 3.4722 6.6044C3.2508 7.1768 3.0978 7.832 3.054 8.7902C3.0108 9.7496 3 10.055 3 12.5C3 14.945 3.0102 15.2504 3.054 16.2104C3.0978 17.1686 3.2502 17.8232 3.4728 18.3956C3.6984 18.9956 4.0524 19.5398 4.5108 19.9898C4.96029 20.4475 5.50411 20.8017 6.1044 21.0278C6.6768 21.2498 7.3314 21.4022 8.2896 21.446C9.2496 21.4898 9.5556 21.5 12 21.5C14.4444 21.5 14.7504 21.4898 15.7104 21.446C16.6686 21.4022 17.3232 21.2498 17.8956 21.0272C18.4956 20.8016 19.0398 20.4476 19.4898 19.9892C19.9475 19.5397 20.3017 18.9959 20.5278 18.3956C20.7498 17.8232 20.9022 17.1686 20.946 16.2104C20.9898 15.2504 21 14.9444 21 12.5C21 10.0556 20.9898 9.7496 20.946 8.7896C20.9022 7.8314 20.7498 7.1768 20.5272 6.6044C20.3012 6.00384 19.947 5.45979 19.4892 5.0102C19.0397 4.55253 18.4959 4.19831 17.8956 3.9722C17.3232 3.7508 16.668 3.5978 15.7098 3.554C14.7504 3.5108 14.445 3.5 12 3.5ZM12 5.1218C14.403 5.1218 14.688 5.1308 15.6372 5.174C16.5144 5.2142 16.9908 5.36 17.3082 5.4842C17.7282 5.6468 18.0282 5.8424 18.3432 6.1568C18.6582 6.4718 18.8532 6.7718 19.0158 7.1918C19.1394 7.5092 19.2858 7.9856 19.326 8.8628C19.3692 9.812 19.3782 10.097 19.3782 12.5C19.3782 14.903 19.3692 15.188 19.326 16.1372C19.2858 17.0144 19.14 17.4908 19.0158 17.8082C18.8718 18.1991 18.6419 18.5528 18.3432 18.8432C18.0528 19.142 17.6992 19.3718 17.3082 19.5158C16.9908 19.6394 16.5144 19.7858 15.6372 19.826C14.688 19.8692 14.4036 19.8782 12 19.8782C9.5964 19.8782 9.312 19.8692 8.3628 19.826C7.4856 19.7858 7.0092 19.64 6.6918 19.5158C6.30087 19.3718 5.9472 19.1419 5.6568 18.8432C5.35811 18.5528 5.12828 18.1991 4.9842 17.8082C4.8606 17.4908 4.7142 17.0144 4.674 16.1372C4.6308 15.188 4.6218 14.903 4.6218 12.5C4.6218 10.097 4.6308 9.812 4.674 8.8628C4.7142 7.9856 4.86 7.5092 4.9842 7.1918C5.1468 6.7718 5.3424 6.4718 5.6568 6.1568C5.94716 5.85803 6.30085 5.62819 6.6918 5.4842C7.0092 5.3606 7.4856 5.2142 8.3628 5.174C9.312 5.1308 9.597 5.1218 12 5.1218Z" fill="url(#paint0_linear_65_261)"/>
<path fill-rule="evenodd" clip-rule="evenodd" d="M12 15.5028C11.6057 15.5028 11.2152 15.4251 10.8508 15.2742C10.4865 15.1233 10.1554 14.9021 9.87658 14.6232C9.59773 14.3444 9.37653 14.0133 9.22561 13.649C9.0747 13.2846 8.99702 12.8941 8.99702 12.4998C8.99702 12.1054 9.0747 11.7149 9.22561 11.3506C9.37653 10.9862 9.59773 10.6552 9.87658 10.3763C10.1554 10.0975 10.4865 9.87629 10.8508 9.72538C11.2152 9.57446 11.6057 9.49679 12 9.49679C12.7965 9.49679 13.5603 9.81318 14.1235 10.3763C14.6866 10.9395 15.003 11.7033 15.003 12.4998C15.003 13.2962 14.6866 14.0601 14.1235 14.6232C13.5603 15.1864 12.7965 15.5028 12 15.5028ZM12 7.87379C10.7731 7.87379 9.59649 8.36117 8.72895 9.22871C7.8614 10.0963 7.37402 11.2729 7.37402 12.4998C7.37402 13.7267 7.8614 14.9033 8.72895 15.7709C9.59649 16.6384 10.7731 17.1258 12 17.1258C13.2269 17.1258 14.4036 16.6384 15.2711 15.7709C16.1386 14.9033 16.626 13.7267 16.626 12.4998C16.626 11.2729 16.1386 10.0963 15.2711 9.22871C14.4036 8.36117 13.2269 7.87379 12 7.87379ZM17.9718 7.78979C17.9718 8.0798 17.8566 8.35794 17.6515 8.56301C17.4465 8.76808 17.1683 8.88329 16.8783 8.88329C16.5883 8.88329 16.3102 8.76808 16.1051 8.56301C15.9 8.35794 15.7848 8.0798 15.7848 7.78979C15.7848 7.49977 15.9 7.22164 16.1051 7.01657C16.3102 6.8115 16.5883 6.69629 16.8783 6.69629C17.1683 6.69629 17.4465 6.8115 17.6515 7.01657C17.8566 7.22164 17.9718 7.49977 17.9718 7.78979Z" fill="url(#paint1_linear_65_261)"/>
<defs>
<linearGradient id="paint0_linear_65_261" x1="3.984" y1="-9.74285" x2="22.9213" y2="-8.53128" gradientUnits="userSpaceOnUse">
<stop stop-color="#754600"/>
<stop offset="1" stop-color="#906444"/>
</linearGradient>
<linearGradient id="paint1_linear_65_261" x1="7.95337" y1="-0.976837" x2="19.1016" y2="-0.252095" gradientUnits="userSpaceOnUse">
<stop stop-color="#754600"/>
<stop offset="1" stop-color="#906444"/>
</linearGradient>
</defs>
</svg>
