<svg width="210" height="18" viewBox="0 0 210 18" fill="none" xmlns="http://www.w3.org/2000/svg">
<path d="M172.412 2.23421C172.94 1.63773 173.559 0.98109 173.787 0.774691C174.329 0.284436 175.781 0.508202 175.951 1.10848C176.025 1.36658 176.456 1.61609 176.911 1.66367C178.376 1.81632 178.785 2.56643 178.536 4.63963C178.334 6.31759 178.379 6.49707 178.907 6.13527C179.439 5.77058 179.443 5.80859 178.942 6.47219C178.631 6.88354 178.263 7.13474 178.123 7.03041C177.984 6.92575 177.866 7.1724 177.859 7.57833C177.846 8.46069 178.149 8.54245 178.843 7.8444C179.125 7.56093 179.614 7.38675 179.928 7.45753C180.613 7.61175 183.33 6.60853 183.368 6.18792C183.383 6.02547 183.599 5.90973 183.848 5.93111C184.098 5.95217 184.769 5.77726 185.339 5.54215C185.998 5.27071 186.447 5.25417 186.568 5.49613C186.687 5.73502 187 5.70984 187.402 5.42995C188.457 4.69601 191.343 3.99278 191.077 4.53429C190.922 4.84968 191.115 4.96286 191.706 4.90431C192.244 4.85087 192.812 5.12283 193.245 5.64187C193.806 6.31469 193.85 6.62974 193.487 7.37526C193.243 7.87635 193.122 8.4441 193.219 8.63706C193.315 8.82998 193.24 8.97385 193.053 8.95691C192.864 8.93993 192.593 9.28579 192.45 9.72507C192.307 10.1644 191.93 11.0288 191.611 11.646C190.991 12.8476 191.139 13.4315 191.958 13.0174C192.235 12.8772 192.694 12.7486 192.977 12.7317C193.26 12.7145 193.64 12.5024 193.822 12.2596C194.004 12.0172 194.258 11.9455 194.388 12.1005C194.517 12.2554 194.849 12.2258 195.127 12.0352C195.404 11.8442 196.086 11.679 196.642 11.6681C197.198 11.6576 197.73 11.4723 197.824 11.2567C197.918 11.0412 198.232 10.8863 198.521 10.9124C198.811 10.9385 199.474 10.7326 199.994 10.4549C200.515 10.1773 200.93 10.0754 200.916 10.2292C200.902 10.3825 201.199 10.2778 201.576 9.99559C202.273 9.47503 206.251 8.23604 206.452 8.47717C206.659 8.72503 205.998 9.75911 205.652 9.72794C205.462 9.7108 205.423 9.54273 205.564 9.35441C205.705 9.16611 205.648 8.99643 205.437 8.97739C205.226 8.95835 205.031 9.18243 205.005 9.47541C204.973 9.82315 204.755 9.90871 204.374 9.72195C204.039 9.55714 203.87 9.59275 203.977 9.80637C204.079 10.01 203.973 10.3986 203.742 10.6698C203.399 11.0717 203.37 11.0489 203.583 10.5465C203.726 10.2078 203.686 9.91611 203.493 9.8987C203.3 9.88127 203.13 9.99428 203.116 10.1502C203.084 10.5114 200.816 11.1523 200.475 10.8963C200.333 10.7908 200.103 10.9396 199.961 11.2273C199.632 11.8991 200.15 11.9367 201.598 11.3457C202.233 11.0868 202.82 10.9544 202.901 11.052C202.982 11.1496 202.369 11.4931 201.537 11.815C200.445 12.2381 199.925 12.2808 199.665 11.9689C199.405 11.6574 199.197 11.6792 198.914 12.0475C198.699 12.3282 198.528 12.3935 198.534 12.193C198.54 11.9925 198.261 12.2963 197.914 12.8682C197.567 13.44 197.388 13.6293 197.516 13.2892C197.644 12.9491 197.59 12.6562 197.397 12.6388C197.204 12.6213 197.029 12.7905 197.009 13.015C196.986 13.2735 196.586 13.3088 195.918 13.1114C195.338 12.9399 194.752 12.9488 194.615 13.131C194.478 13.3131 194.644 13.487 194.983 13.5176C195.613 13.5745 196.473 14.6405 196.415 15.2918C196.397 15.4912 196.181 15.3317 195.934 14.9378C195.688 14.5434 195.303 14.3127 195.078 14.4252C194.854 14.5372 194.684 14.474 194.701 14.284C194.752 13.7144 193.738 13.4028 192.742 13.6821C191.813 13.9424 191.39 14.6557 192.124 14.722C192.335 14.741 192.432 14.6039 192.339 14.4174C192.112 13.9642 193.45 13.7595 193.989 14.1646C194.484 14.5357 193.252 15.1893 192.231 15.0972C191.728 15.0518 191.69 15.146 192.021 15.6266C192.242 15.9481 192.361 16.2191 192.286 16.2287C192.21 16.2384 191.654 16.2814 191.051 16.3239C190.448 16.3667 189.812 16.5839 189.637 16.8061C189.424 17.0768 189.27 16.9342 189.169 16.3746C189.087 15.9149 188.875 15.5256 188.699 15.5097C188.523 15.4938 188.438 15.2807 188.51 15.0357C188.582 14.7911 188.375 14.6097 188.049 14.6329C187.565 14.6675 187.496 14.3498 187.673 12.9043C187.84 11.55 187.747 11.0236 187.276 10.6675C186.787 10.2969 186.652 10.3133 186.612 10.7491C186.568 11.239 186.328 11.3416 185.609 11.1788C185.483 11.1503 185.227 11.3312 185.04 11.5811C184.852 11.831 184.487 12.0334 184.227 12.0316C183.968 12.0294 183.467 12.027 183.116 12.026C182.764 12.0247 182.452 12.2871 182.423 12.6088C182.383 13.0526 182.112 13.1319 181.297 12.9363C180.628 12.7755 180.209 12.8379 180.186 13.1015C180.135 13.6679 178.403 14.2498 177.74 13.9238C177.449 13.7809 177.197 13.8174 177.18 14.0048C177.163 14.1927 176.904 14.324 176.605 14.297C176.306 14.27 176.078 14.0565 176.1 13.8226C176.121 13.5887 175.747 13.1744 175.269 12.9025C174.555 12.4963 174.391 12.5034 174.351 12.9436C174.324 13.2388 174.547 13.502 174.847 13.529C175.146 13.556 175.376 13.7412 175.358 13.9406C175.312 14.4486 173.74 14.252 173.261 13.6784C172.7 13.0064 172.813 12.6163 173.553 12.6702C174.107 12.7103 174.1 12.6556 173.5 12.2458C172.546 11.5939 172.543 11.5892 172.851 11.1791C173.041 10.9253 173.329 10.9465 173.787 11.2474C174.321 11.5986 174.417 11.5722 174.286 11.1108C174.169 10.6966 173.586 10.4908 172.169 10.363C169.971 10.1647 169.624 10.1982 169.719 10.599C169.755 10.7532 169.367 10.8414 168.857 10.7954C168.347 10.7494 168.01 10.8721 168.107 11.0681C168.514 11.8804 165.807 12.1857 165.013 11.4169C164.619 11.036 164.558 11.1021 164.671 11.7885C164.777 12.4375 164.653 12.6095 164.116 12.561C163.736 12.5267 163.439 12.3405 163.456 12.1473C163.474 11.9544 163.262 11.8603 162.985 11.9388C162.399 12.1049 161.884 11.4528 161.49 10.0449C161.259 9.22277 161.3 9.08869 161.719 9.29425C161.999 9.43177 162.244 9.38287 162.261 9.18561C162.324 8.48797 160.499 8.29118 159.619 8.90046C158.79 9.47421 158.786 9.49754 159.484 9.57774C160.079 9.64602 160.106 9.71283 159.637 9.95377C159.214 10.1704 158.949 10.0087 158.617 9.33212L158.17 8.41807L157.692 9.17298C157.374 9.67616 156.936 9.87099 156.381 9.75694C155.497 9.57597 154.392 10.1145 154.638 10.6064C154.873 11.0765 152.858 11.1543 150.845 10.7526C149.587 10.5014 148.789 10.5175 148.376 10.8015C147.877 11.1447 147.72 11.1313 147.518 10.7271C147.344 10.3787 147.187 10.3444 146.986 10.6111C146.56 11.1795 145.612 10.9748 145.119 10.2076C144.711 9.5731 144.694 9.57562 144.864 10.2483C144.998 10.7765 144.914 10.9038 144.548 10.7267C143.075 10.0149 142.461 9.85963 142.431 10.1914C142.413 10.3941 141.476 10.466 140.314 10.3532C139.168 10.2425 137.241 10.1744 136.033 10.2024C134.824 10.2301 133.1 10.1894 132.203 10.1113C131.305 10.0337 130.338 10.1285 130.054 10.3222C129.741 10.5356 129.453 10.5319 129.324 10.313C128.986 9.74298 126.356 9.61357 126.515 10.1744C126.676 10.742 123.555 10.5635 123.267 9.98892C123.167 9.78756 122.836 9.69305 122.534 9.77906C122.224 9.86666 122.002 9.72961 122.025 9.46527C122.049 9.20057 121.679 9.34444 121.176 9.79515C120.386 10.5029 120.277 10.5197 120.218 9.94086C120.164 9.39674 120.052 9.35638 119.553 9.70026C118.915 10.1392 117.397 10.2033 113.574 9.9534C112.274 9.86874 111.109 9.9128 110.985 10.0518C110.861 10.1905 109.088 10.2386 107.046 10.1582C103.821 10.031 103.34 9.93645 103.385 9.43751C103.432 8.915 103.38 8.90996 102.816 9.3814C102.15 9.93658 101.504 10.0224 101.547 9.54989C101.588 9.08903 99.3005 9.06834 98.2771 9.52033C97.5736 9.83083 97.3177 9.82273 97.2383 9.48694C97.1614 9.1605 96.8968 9.16735 96.2493 9.51287C95.5842 9.86777 95.082 9.87475 94.2205 9.54115C92.9757 9.05965 92.2861 9.19119 92.6143 9.84845C92.7472 10.1138 92.6602 10.1425 92.374 9.92766C91.7628 9.46932 90.2012 9.17712 90.3911 9.55651C90.6286 10.0319 89.1732 10.1503 88.7866 9.68703C88.5481 9.40122 88.2881 9.38143 87.9378 9.62253C87.6603 9.81354 86.89 9.88297 86.2259 9.77627C85.5434 9.66682 84.9287 9.76671 84.8109 10.0061C84.6721 10.289 84.2883 10.3088 83.6552 10.0653C82.9723 9.80263 82.3024 9.87745 81.2587 10.332C80.0468 10.8598 79.7658 10.8747 79.5401 10.4233C79.3131 9.96896 79.1018 9.94513 78.2042 10.271C77.6177 10.4839 76.4779 10.6783 75.6715 10.7024C74.8651 10.7265 73.9489 10.8533 73.6356 10.9837C73.0271 11.237 69.7684 11.4939 69.3158 11.3244C69.1666 11.2685 69.1016 11.073 69.1712 10.8895C69.2492 10.6849 69.0397 10.6609 68.6284 10.8278C68.2604 10.977 67.7763 11.0141 67.5529 10.9099C67.3294 10.8056 67.0245 10.8827 66.8762 11.081C66.4764 11.6137 65.9159 11.4615 65.9723 10.836C65.9993 10.5369 65.7766 10.27 65.4775 10.243C65.1783 10.2161 64.9115 10.4387 64.8845 10.7379C64.8397 11.235 64.0952 11.4153 63.2028 11.1455C61.9744 10.774 59.8696 10.5988 59.3317 10.8233C58.912 10.9982 58.6499 10.93 58.5564 10.6211C58.4668 10.3257 58.385 10.3687 58.3334 10.7384C58.2705 11.1886 57.9218 11.2733 56.8089 11.1093C56.0152 10.9924 55.3542 11.026 55.3399 11.1841C55.3128 11.4851 53.6433 11.1243 53.0688 10.693C52.8705 10.5446 52.8359 10.6449 52.9836 10.9401C53.1713 11.3156 52.9989 11.371 52.2801 11.1651C51.7563 11.0151 51.2275 11.0259 51.1053 11.1889C50.9831 11.3518 50.5798 11.458 50.2093 11.4246C49.839 11.3912 49.4655 11.5246 49.3798 11.7212C49.2779 11.9544 48.6411 11.9141 47.5435 11.6049C46.6195 11.3442 45.7638 11.2144 45.642 11.3164C45.5198 11.4179 45.1976 11.5135 44.9253 11.5288C44.6531 11.5441 44.0862 11.6322 43.6658 11.7252C43.1489 11.8394 42.8072 11.6836 42.6108 11.244C42.3486 10.6567 42.29 10.6667 42.0046 11.3465C41.7504 11.9519 41.4654 12.0509 40.5446 11.8527C39.9152 11.7173 38.147 11.8232 36.6153 12.0875C35.0835 12.3522 33.0907 12.5851 32.1867 12.6052C31.2827 12.6256 30.2281 12.7758 29.8434 12.9392C29.4583 13.1026 28.9161 13.1246 28.6378 12.988C28.1719 12.7592 24.6791 13.4794 23.2242 14.1041C22.8823 14.2509 22.2657 14.2497 21.8536 14.1014C21.4418 13.9532 21.0894 14.0021 21.0706 14.2103C21.0518 14.4188 20.088 14.6199 18.9284 14.6575C17.7691 14.6951 16.729 14.8254 16.6176 14.9469C16.1655 15.4398 13.4756 15.7572 13.0805 15.3641C12.8064 15.0915 12.6051 15.1187 12.4425 15.4502C12.3117 15.7166 11.6613 15.9931 10.9976 16.0648C10.3335 16.1362 9.51488 16.3935 9.17828 16.6358C8.07301 17.4325 6.41941 17.609 4.91099 17.092C3.14267 16.4858 3.11499 16.4563 3.73612 15.8316C4.05328 15.513 4.09962 15.3073 3.85885 15.2856C3.64709 15.2665 3.35788 15.4049 3.21661 15.5932C2.78774 16.1654 2.26711 15.9192 2.02247 15.0286C1.878 14.5027 1.94371 14.1065 2.19716 13.9755C2.47397 13.8326 2.46938 13.5716 2.18338 13.1557C1.95264 12.8202 1.62917 12.613 1.46419 12.6953C0.90641 12.9744 0.868157 11.814 1.41375 11.1675C1.84924 10.6515 1.87781 10.3957 1.55866 9.86499C1.34027 9.50204 1.04582 9.30147 0.904298 9.41957C0.762777 9.53767 0.665431 9.42947 0.688033 9.17891C0.743442 8.56466 2.79561 6.77799 3.14486 7.0398C3.29755 7.15446 3.61904 6.84459 3.85909 6.35155C4.23053 5.58925 4.52008 5.47536 5.7939 5.59027C6.93501 5.69321 7.25642 5.599 7.14179 5.19606C7.02036 4.76728 7.2055 4.74925 8.11433 5.10101C9.49438 5.63492 9.41576 5.63112 9.45753 5.16808C9.47657 4.95704 9.3199 4.87017 9.10935 4.97547C8.8988 5.08076 8.75647 4.83506 8.79307 4.42931C8.85113 3.78569 8.97517 3.7479 9.76444 4.13237C10.262 4.37466 10.8167 4.49928 10.9966 4.4095C11.1769 4.31938 11.2695 4.57303 11.203 4.97352C11.0671 5.78813 10.6461 5.90369 10.429 5.1859C10.3269 4.84732 10.2683 4.83582 10.2196 5.14543C10.1252 5.7452 10.6607 6.07426 11.393 5.86652C11.7329 5.76997 11.9455 5.45977 11.8654 5.17691C11.7852 4.89406 11.8928 4.67822 12.1046 4.69733C12.3163 4.71643 12.5452 5.06425 12.6131 5.47029C12.681 5.87633 12.8951 6.12921 13.0884 6.0326C13.2821 5.93566 13.9513 5.75879 14.5756 5.63891C15.5468 5.45272 15.6409 5.49192 15.2256 5.90957C14.8348 6.30238 14.8549 6.40764 15.3289 6.45039C15.6523 6.47957 15.9453 6.21794 15.9797 5.86938C16.0279 5.38389 16.1043 5.35496 16.3055 5.7467C16.5145 6.15267 16.6287 6.13519 16.8616 5.66087C17.0859 5.20406 17.4126 5.13997 18.2515 5.38782C19.1424 5.65132 19.3942 5.58301 19.5951 5.02539C19.7999 4.45715 19.9505 4.42102 20.4695 4.81402C20.8148 5.07547 21.0045 5.41244 20.8915 5.56308C20.6109 5.93733 21.1484 5.94486 21.8495 5.57639C22.2332 5.37485 22.274 5.25864 21.9723 5.22741C21.2483 5.15332 21.5057 4.55255 22.32 4.41618C22.7287 4.34776 22.9663 4.42072 22.8479 4.57856C22.7294 4.7364 22.7799 4.97565 22.9596 5.11067C23.1393 5.24568 23.4723 5.08452 23.6992 4.75333C24.0887 4.18348 24.1494 4.19189 24.8047 4.90205C25.186 5.31516 25.5137 5.47923 25.5329 5.26638C25.5521 5.05353 26.2305 4.82814 27.0404 4.76521C27.8502 4.70228 28.5263 4.50226 28.5427 4.32023C28.5591 4.13821 28.9903 4.02723 29.5004 4.07325C30.0266 4.12071 30.3173 4.30522 30.1715 4.49934C29.7643 5.04237 30.5672 4.95944 31.2523 4.3881C31.5954 4.10139 31.8571 4.04896 31.8371 4.27087C31.8108 4.56313 32.0165 4.58058 32.5938 4.33547C33.0298 4.15035 33.4655 4.09388 33.5626 4.20974C33.777 4.46705 34.6075 3.80685 34.9625 3.09717C35.1105 2.80127 35.2031 3.0476 35.1779 3.67151C35.1398 4.61998 35.1837 4.67219 35.511 4.06712C35.7185 3.68373 35.8795 3.5926 35.8692 3.86474C35.8558 4.21592 36.1463 4.31853 36.8682 4.21806C37.6234 4.11291 37.7374 4.15864 37.3092 4.39528C36.8136 4.66933 36.8215 4.72342 37.3661 4.7773C37.715 4.8117 38.0159 4.66593 38.0351 4.45308C38.0551 4.23081 38.3704 4.192 38.7744 4.3615C39.1619 4.52403 39.4914 4.51865 39.5066 4.34968C39.5219 4.18034 40.0405 3.90144 40.6592 3.72951C41.2779 3.55758 41.7706 3.56618 41.7542 3.74821C41.6874 4.48791 42.7065 4.10024 43.1809 3.2054C43.461 2.67759 43.5818 2.57808 43.4494 2.98433C43.2395 3.62924 43.3492 3.71481 44.3162 3.66058C45.033 3.62069 45.409 3.7555 45.3831 4.04268C45.3611 4.28707 45.6987 4.13037 46.1335 3.69511C46.8484 2.97878 46.9191 2.96943 46.8737 3.59445C46.8284 4.21802 46.9051 4.20702 47.6584 3.48246L48.4938 2.67939L49.1102 3.59807C49.4495 4.10317 49.7563 4.41889 49.7923 4.29932C49.8283 4.17974 49.9133 3.92237 49.981 3.72742C50.0486 3.53247 50.1349 3.26061 50.1725 3.12326C50.2101 2.98592 50.4189 3.087 50.6366 3.3479C51.112 3.91755 51.9627 4.04693 52.007 3.55597C52.0244 3.36306 51.7854 3.2768 51.4759 3.3644C51.1664 3.45236 50.9263 3.37843 50.9424 3.20003C50.9585 3.02163 51.3002 2.88065 51.7018 2.88654C52.1191 2.89274 52.4117 3.12092 52.3849 3.41862C52.359 3.70543 52.4988 3.97906 52.6956 4.02714C53.7143 4.27513 53.9572 4.22429 53.9996 3.75472C54.025 3.47226 54.2967 3.19628 54.6032 3.14168C55.0984 3.05329 55.0961 3.07976 54.5819 3.37809C53.8004 3.83143 54.3756 3.86577 55.26 3.41842C55.8077 3.14139 56.2046 3.21119 57.0509 3.73315C57.649 4.1022 58.2346 4.27567 58.3523 4.1185C58.4702 3.96171 58.3689 3.73213 58.1274 3.60836C57.851 3.46718 57.9132 3.39346 58.2956 3.40968C58.6291 3.42405 58.9527 3.64589 59.014 3.90256C59.0974 4.25077 59.2652 4.2787 59.6742 4.01182C59.976 3.81532 60.6272 3.73187 61.1213 3.82652C61.6154 3.92153 62.5821 3.79856 63.2691 3.55311C64.2058 3.21941 64.6133 3.22069 64.8953 3.55868C65.4265 4.19513 65.8432 4.16255 65.9048 3.47977C65.9388 3.1023 66.1485 2.99108 66.5006 3.16395C66.8409 3.33099 66.9656 3.27388 66.8343 3.01127C66.6884 2.71956 66.9897 2.7058 67.8246 2.96644C68.4845 3.17219 69.0663 3.49006 69.117 3.67266C69.1682 3.85494 69.36 3.92927 69.5434 3.83761C69.7268 3.74594 69.8008 3.40351 69.7082 3.07676C69.5642 2.56919 69.6513 2.55585 70.3039 2.98466C70.902 3.37747 71.1988 3.39731 71.6661 3.0761C72.1607 2.73543 72.3174 2.78574 72.5787 3.37007C72.8771 4.0378 72.9349 4.03242 73.6583 3.2675C74.0789 2.82328 74.3576 2.6799 74.2781 2.94909C74.1986 3.21828 74.3308 3.53179 74.5717 3.64563C74.8129 3.75951 75.0259 3.676 75.0454 3.45989C75.065 3.24233 75.7382 3.1265 76.5552 3.20019C77.3659 3.27333 78.3807 3.18393 78.8102 3.00152C79.253 2.81372 79.4816 2.81642 79.3383 3.00783C79.1991 3.1934 79.39 3.45519 79.7625 3.58931C80.2578 3.76778 80.3972 3.68166 80.2804 3.26939C80.1481 2.80344 80.2453 2.7877 80.842 3.17966C81.3165 3.49188 81.6517 3.53637 81.8208 3.31073C81.9625 3.12173 82.7119 3.02447 83.4861 3.0943C84.2602 3.16414 85.0092 3.0672 85.1505 2.87889C85.5149 2.39305 86.7329 2.56762 86.8661 3.12504C86.9491 3.47286 87.1177 3.50086 87.5262 3.23504C88.1581 2.82376 90.1344 2.43361 90.6574 2.61677C91.7102 2.98554 93.71 3.22187 93.7318 2.97965C93.7457 2.82555 94.2436 2.7776 94.8381 2.87291C95.4327 2.96822 95.9329 2.89379 95.9497 2.70705C95.9669 2.51633 96.292 2.5727 96.6926 2.83585C97.2137 3.17858 97.5456 3.20706 97.9299 2.9427C98.2199 2.74295 98.5311 2.73375 98.6252 2.92209C98.719 3.10968 99.3354 3.27567 99.9952 3.29133C100.655 3.30699 101.414 3.52455 101.681 3.7753C102.053 4.12434 102.113 4.11913 101.936 3.75331C101.785 3.44368 101.936 3.28726 102.362 3.30855C106.189 3.49983 110.685 3.27304 111.008 2.8723C111.221 2.60819 111.302 2.61364 111.281 2.8903C111.264 3.10667 111.822 3.33536 112.52 3.39832C113.432 3.48056 113.807 3.35102 113.852 2.93943C113.902 2.48519 113.985 2.51793 114.255 3.09757C114.586 3.80809 114.611 3.8107 115.149 3.19935C115.453 2.85357 115.684 2.77094 115.662 3.01533C115.632 3.34312 115.815 3.37757 116.359 3.14692C116.807 2.95671 117.166 2.9741 117.275 3.19154C117.439 3.51998 118.802 3.56289 119.937 3.27487C120.196 3.20903 120.8 3.34651 121.28 3.58027C121.826 3.84629 122.164 3.87751 122.183 3.66321C122.2 3.47502 122.423 3.42348 122.679 3.54892C122.935 3.67432 123.583 3.65389 124.121 3.50314C124.658 3.3524 125.138 3.36351 125.187 3.52766C125.236 3.6922 126.231 3.7209 127.399 3.5923C128.567 3.46369 129.51 3.48776 129.496 3.64621C129.481 3.80467 129.892 3.81609 130.407 3.67142C131.089 3.48033 131.342 3.53056 131.334 3.8555C131.325 4.19613 131.375 4.19778 131.547 3.86339C131.67 3.62196 131.912 3.53008 132.085 3.6593C132.257 3.78852 132.41 3.76213 132.424 3.60077C132.439 3.43941 133.146 3.35803 133.994 3.41996C135.912 3.55974 137.633 3.44776 138.242 3.14336C138.501 3.01387 138.945 3.19645 139.243 3.55497C139.623 4.00961 139.904 4.09562 140.201 3.84722C140.433 3.65423 140.988 3.52917 141.435 3.5695C141.882 3.60983 142.352 3.50241 142.481 3.33089C142.744 2.98029 143.394 3.07694 144.034 3.56162C144.27 3.74004 144.661 3.78599 144.905 3.6643C145.149 3.54263 145.908 3.51461 146.592 3.60231C147.277 3.69004 148.351 3.55255 148.979 3.2963C149.607 3.04005 149.996 2.99726 149.843 3.20097C149.463 3.70667 149.829 3.69653 150.845 3.17292C151.731 2.71625 152.462 2.76939 154.115 3.41017C154.833 3.68882 155.291 3.64892 155.802 3.26407C156.188 2.97318 156.847 2.76647 157.266 2.80432C157.711 2.84442 158.153 2.57903 158.325 2.1687C158.487 1.78126 158.782 1.47886 158.98 1.49669C159.178 1.51455 159.212 1.69963 159.055 1.90816C158.858 2.17146 159.042 2.22134 159.659 2.07189C160.614 1.84036 161.377 1.899 163.062 2.33322C163.652 2.48509 164.257 2.63915 164.408 2.67576C164.559 2.71241 164.902 3.33558 165.171 4.06095C165.633 5.30826 165.696 5.34863 166.331 4.80527C166.699 4.48908 166.942 4.10227 166.87 3.94476C166.797 3.78725 166.911 3.67431 167.122 3.69335C167.333 3.71239 167.484 3.9742 167.456 4.27479C167.416 4.72224 167.54 4.75462 168.138 4.45247C168.566 4.23562 168.838 3.78495 168.796 3.36257C168.756 2.96637 168.816 2.7536 168.93 2.88995C169.044 3.02633 169.361 2.98328 169.635 2.79488C169.977 2.55893 170.339 2.58712 170.792 2.8854C171.339 3.2447 171.616 3.1333 172.412 2.23421Z" fill="#CA7955"/>
<path d="M155.886 2.8626C155.676 2.96789 155.519 2.88102 155.538 2.66999C155.557 2.45895 155.736 2.30071 155.935 2.3187C156.135 2.33669 156.291 2.42319 156.283 2.5113C156.275 2.59942 156.097 2.7573 155.886 2.8626Z" fill="#CA7955"/>
<path d="M209.194 7.85408C208.983 7.83504 208.824 7.65627 208.842 7.45684C208.86 7.25741 208.947 7.10071 209.035 7.10866C209.123 7.11661 209.281 7.29535 209.386 7.5059C209.492 7.71645 209.405 7.87312 209.194 7.85408Z" fill="#CA7955"/>
<path d="M207.398 8.03206C206.9 7.96593 206.927 7.90582 207.541 7.70496C208.548 7.37549 208.561 7.37664 208.266 7.77037C208.124 7.95868 207.734 8.07626 207.398 8.03206Z" fill="#CA7955"/>
<path d="M155.027 3.18863C154.895 3.29815 154.581 3.28297 154.329 3.1546C154.05 3.01282 154.144 2.93464 154.568 2.95534C154.952 2.97422 155.158 3.0791 155.027 3.18863Z" fill="#CA7955"/>
<path d="M146.909 3.33226C146.821 3.32431 146.663 3.14557 146.558 2.93502C146.453 2.72447 146.54 2.5678 146.751 2.58684C146.962 2.60588 147.12 2.78465 147.102 2.98408C147.084 3.18351 146.998 3.34021 146.909 3.33226Z" fill="#CA7955"/>
<path d="M91.5727 2.36157C91.3617 2.34253 91.3042 2.17285 91.4455 1.98454C91.5868 1.79623 91.7741 1.64863 91.8622 1.65658C91.9503 1.66453 92.0074 1.83418 91.9894 2.03361C91.9714 2.23304 91.7838 2.38061 91.5727 2.36157Z" fill="#CA7955"/>
<path d="M75.636 2.75173C75.3253 2.72369 75.1862 2.54665 75.3275 2.35834C75.4688 2.17004 75.7377 2.02979 75.9255 2.04674C76.1134 2.06368 76.252 2.24069 76.234 2.44012C76.216 2.63955 75.9468 2.77976 75.636 2.75173Z" fill="#CA7955"/>
<path d="M68.2498 2.81105C67.7078 2.75741 67.6994 2.70402 68.1914 2.44572C68.9155 2.06507 68.9565 2.06876 68.9166 2.51114C68.8986 2.71057 68.5984 2.84542 68.2498 2.81105Z" fill="#CA7955"/>
<path d="M196.74 14.1813C196.441 14.0345 196.202 13.8503 196.209 13.772C196.236 13.4783 196.912 13.7056 197.094 14.0696C197.202 14.2863 197.051 14.3341 196.74 14.1813Z" fill="#CA7955"/>
<path d="M64.6344 2.36684C64.3762 2.44517 63.9682 2.40838 63.7279 2.28507C63.4878 2.16216 63.699 2.09824 64.1976 2.14321C64.6962 2.18819 64.8929 2.28891 64.6344 2.36684Z" fill="#CA7955"/>
<path d="M60.4258 3.38763C60.2395 3.248 60.101 2.98035 60.118 2.79252C60.165 2.2711 60.4146 2.4095 60.5991 3.05928C60.6936 3.39315 60.6196 3.53305 60.4258 3.38763Z" fill="#CA7955"/>
<path d="M193.126 15.5361C193.141 15.3701 193.446 15.1852 193.803 15.1253C194.16 15.0657 194.494 15.0016 194.547 14.9829C194.599 14.9642 194.628 15.0933 194.612 15.2692C194.596 15.4454 194.249 15.6455 193.841 15.714C193.433 15.782 193.111 15.7022 193.126 15.5361Z" fill="#CA7955"/>
<path d="M44.3392 3.2185C44.1282 3.19947 44.0708 3.02979 44.212 2.84148C44.3533 2.65317 44.5406 2.50557 44.6288 2.51351C44.7169 2.52146 44.7739 2.69111 44.7559 2.89054C44.738 3.08997 44.5503 3.23754 44.3392 3.2185Z" fill="#CA7955"/>
<path d="M32.5413 3.47169C32.41 3.58121 32.0959 3.56603 31.8439 3.43766C31.565 3.29589 31.6587 3.2177 32.0827 3.2384C32.4663 3.25728 32.6725 3.36217 32.5413 3.47169Z" fill="#CA7955"/>
<path d="M16.8221 4.57456C15.787 4.67858 16.3327 4.13635 17.4245 3.97566C17.832 3.91555 18.2407 3.85445 18.3324 3.83933C18.424 3.8242 18.3171 3.96406 18.0949 4.14946C17.8724 4.33518 17.2995 4.52659 16.8221 4.57456Z" fill="#CA7955"/>
<path d="M18.9801 5.14464C18.8 5.00958 18.7661 4.66768 18.9049 4.3852C19.2601 3.66164 19.4537 3.76794 19.3747 4.64362C19.3377 5.05409 19.1602 5.27968 18.9801 5.14464Z" fill="#CA7955"/>
<path d="M6.2048 5.26178C6.03039 5.24605 5.92406 4.82814 5.96871 4.33319C6.01336 3.83824 6.18478 3.53458 6.34948 3.65801C6.51414 3.7818 6.6205 4.19934 6.58557 4.5866C6.55063 4.97386 6.37922 5.27752 6.2048 5.26178Z" fill="#CA7955"/>
<path d="M3.44515 4.54968C3.33629 4.41923 3.39349 4.11734 3.57257 3.87871C3.83437 3.52946 3.91995 3.53717 4.00928 3.91663C4.13735 4.45823 3.7404 4.90348 3.44515 4.54968Z" fill="#CA7955"/>
<path d="M4.91467 4.62668C4.65336 4.31396 4.44833 3.965 4.45863 3.85078C4.51228 3.25612 5.40911 3.8382 5.40001 4.46174C5.39067 5.10025 5.32733 5.12158 4.91467 4.62668Z" fill="#CA7955"/>
<path d="M13.8485 5.11966C13.4524 5.05359 13.1389 4.88129 13.152 4.73661C13.165 4.5923 13.4998 4.52783 13.8959 4.59391C14.2921 4.65998 14.6055 4.83228 14.5925 4.97696C14.5795 5.12127 14.2447 5.18574 13.8485 5.11966Z" fill="#CA7955"/>
<path d="M1.62836 6.85949C1.41781 6.96479 1.26115 6.87792 1.28019 6.66688C1.29922 6.45585 1.478 6.2976 1.67743 6.31559C1.87686 6.33358 2.03355 6.42009 2.02561 6.5082C2.01766 6.59631 1.83892 6.7542 1.62836 6.85949Z" fill="#CA7955"/>
</svg>
