<svg width="60" height="60" viewBox="0 0 60 60" fill="none" xmlns="http://www.w3.org/2000/svg">
<g opacity="0.8">
<path fill-rule="evenodd" clip-rule="evenodd" d="M35 10.8535C40.826 12.9127 45 18.4689 45 25V47.5H46.25C48.3211 47.5 50 49.1789 50 51.25C50 53.3211 48.3211 55 46.25 55H13.75C11.6789 55 10 53.3211 10 51.25C10 49.1789 11.6789 47.5 13.75 47.5H15V25C15 18.4689 19.174 12.9127 25 10.8535V10C25 7.23858 27.2386 5 30 5C32.7614 5 35 7.23858 35 10V10.8535ZM40 27.5V35H32.5V27.5H40ZM40 22.5H32.5V15C36.1681 15.9441 39.0559 18.8319 40 22.5ZM20 27.5H27.5V35H20V27.5ZM20 22.5C20.9441 18.8319 23.8319 15.9441 27.5 15V22.5H20ZM40 40V47.5H32.5V40H40ZM20 40H27.5V47.5H20V40Z" fill="url(#paint0_linear_72_711)"/>
</g>
<defs>
<linearGradient id="paint0_linear_72_711" x1="12.1867" y1="-31.7857" x2="54.3315" y2="-29.6286" gradientUnits="userSpaceOnUse">
<stop stop-color="#754600"/>
<stop offset="1" stop-color="#906444"/>
</linearGradient>
</defs>
</svg>
