<svg width="24" height="25" viewBox="0 0 24 25" fill="none" xmlns="http://www.w3.org/2000/svg">
<path d="M2.39999 4.0999C2.39999 3.78164 2.52642 3.47642 2.75147 3.25137C2.97651 3.02633 3.28173 2.8999 3.59999 2.8999H6.18359C6.46764 2.90003 6.74243 3.00092 6.95909 3.18461C7.17574 3.36831 7.32021 3.6229 7.36679 3.9031L8.25479 9.2251C8.29722 9.47856 8.25716 9.73895 8.14051 9.96794C8.02386 10.1969 7.83677 10.3824 7.60679 10.4971L5.74919 11.4247C6.41532 13.0755 7.40739 14.575 8.66612 15.8338C9.92486 17.0925 11.4244 18.0846 13.0752 18.7507L14.004 16.8931C14.1186 16.6633 14.3039 16.4764 14.5327 16.3598C14.7614 16.2431 15.0215 16.2029 15.2748 16.2451L20.5968 17.1331C20.877 17.1797 21.1316 17.3242 21.3153 17.5408C21.499 17.7575 21.5999 18.0323 21.6 18.3163V20.8999C21.6 21.2182 21.4736 21.5234 21.2485 21.7484C21.0235 21.9735 20.7183 22.0999 20.4 22.0999H18C9.38399 22.0999 2.39999 15.1159 2.39999 6.4999V4.0999Z" fill="url(#paint0_linear_65_267)"/>
<defs>
<linearGradient id="paint0_linear_65_267" x1="3.44959" y1="-11.2258" x2="23.6494" y2="-9.93347" gradientUnits="userSpaceOnUse">
<stop stop-color="#754600"/>
<stop offset="1" stop-color="#906444"/>
</linearGradient>
</defs>
</svg>
